[img]http://i.imgur.com/K5Qty.jpg[/img]


[code]
The.Sweeney.2012.720p.BDRip.XViD.AC3-26k
 
http://www.imdb.com/title/tt0857190/

Plot:

A hardened detective in the Flying Squad of London's Metropolitan police. Based on the '70s UK TV show.


Sources - VIDEO: The Sweeney 2012 1080p Blu-ray Remux AVC DTS-HD MA 5 1 - KRaLiMaRKo ..... thanks .... :P
          AUDIO: The Sweeney 2012 1080p Blu-ray Remux AVC DTS-HD MA 5 1 - KRaLiMaRKo ..... thanks .... :P
          SUBS : YES SRT INCLUDED
 
          
Format                                   : AVI
Format/Info                              : Audio Video Interleave
Format profile                           : OpenDML
File size                                : 3.26 GiB
Duration                                 : 1h 52mn
Overall bit rate                         : 4 150 Kbps
Writing library                          : VirtualDub build 32839/release

Video
ID                                       : 0
Format                                   : MPEG-4 Visual
Format profile                           : Advanced Simple@L5
Format settings, BVOP                    : 2
Format settings, QPel                    : No
Format settings, GMC                     : No warppoints
Format settings, Matrix                  : Default (H.263)
Codec ID                                 : XVID
Codec ID/Hint                            : XviD
Duration                                 : 1h 52mn
Bit rate                                 : 3 500 Kbps
Width                                    : 1 280 pixels
Height                                   : 528 pixels
Display aspect ratio                     : 2.40:1
Frame rate                               : 23.976 fps
Color space                              : YUV
Chroma subsampling                       : 4:2:0
Bit depth                                : 8 bits
Scan type                                : Progressive
Compression mode                         : Lossy
Bits/(Pixel*Frame)                       : 0.216
Stream size                              : 2.75 GiB (84%)
Writing library                          : XviD 1.2.1 (UTC 2008-12-04)

Audio
ID                                       : 1
Format                                   : AC-3
Format/Info                              : Audio Coding 3
Mode extension                           : CM (complete main)
Format settings, Endianness              : Big
Codec ID                                 : 2000
Duration                                 : 1h 52mn
Bit rate mode                            : Constant
Bit rate                                 : 640 Kbps
Channel(s)                               : 6 channels
Channel positions                        : Front: L C R, Side: L R, LFE
Sampling rate                            : 48.0 KHz
Bit depth                                : 16 bits
Compression mode                         : Lossy
Stream size                              : 515 MiB (15%)
Alignment                                : Split accross interleaves
Interleave, duration                     : 42 ms (1.00 video frame)
Interleave, preload duration             : 500 ms

Notes -

Took the BD made a script to make magic happen and this is the outcome.. enjoy

[/code]

Screens:

[img]http://i.imgur.com/eqV05.png[/img]
[img]http://i.imgur.com/gIOJy.png[/img]
[img]http://i.imgur.com/jyYV9.png[/img]
[img]http://i.imgur.com/FLDAq.png[/img]
[img]http://i.imgur.com/5Vj1q.jpg[/img]
[img]http://imageshack.us/a/img515/3014/49714638.png[/img]
[img]http://imageshack.us/a/img651/3695/84054446.png[/img]
[img]http://imageshack.us/a/img5/8176/76699432.png[/img]
[img]http://imageshack.us/a/img832/8938/93683401.png[/img]
[img]http://imageshack.us/a/img13/6356/23947849.png[/img]

Greetz:
XtremeEncode|CM8|RX|VISION|HDSCENE|xTriLL|ADTRG|CRYS|REMIXHD|HS|Tommiecook
BIDA|RX|REFILL|INSPiRAL|AXED|HOPE|Anonymous|GooN|NOIR|Blackjesus|Gabroo Punjab Deh
|UNiQUE|RESiSTANCE|TRiNiTY|LEGION

To all the people who have helped me, you know who you are

Anything to offer email us @: 26k@hushmail.me 